<svg t="1756308915131" class="icon" viewBox="0 0 1170 1024" version="1.1" xmlns="http://www.w3.org/2000/svg" p-id="13449" width="200" height="200"><path d="M12.190476 0h1024v1024H12.190476z" fill="#D8D8D8" fill-opacity="0" p-id="13450"></path><path d="M97.52381 128m42.666666 0l298.666667 0q42.666667 0 42.666667 42.666667l0 298.666666q0 42.666667-42.666667 42.666667l-298.666667 0q-42.666667 0-42.666666-42.666667l0-298.666666q0-42.666667 42.666666-42.666667Z" fill="#4A90E2" p-id="13451"></path><path d="M97.52381 554.410667m42.666666 0l298.666667 0q42.666667 0 42.666667 42.666666l0 298.666667q0 42.666667-42.666667 42.666667l-298.666667 0q-42.666667 0-42.666666-42.666667l0-298.666667q0-42.666667 42.666666-42.666666Z" fill="#4A90E2" p-id="13452"></path><path d="M623.561974 42.438318m41.212835 11.042946l288.489847 77.300621q41.212835 11.042946 30.16989 52.255782l-77.300622 288.489846q-11.042946 41.212835-52.255781 30.16989l-288.489847-77.300622q-41.212835-11.042946-30.169889-52.255781l77.300621-288.489847q11.042946-41.212835 52.255781-30.169889Z" fill="#4A90E2" fill-opacity=".6" p-id="13453"></path><path d="M524.190476 554.410667m42.666667 0l298.666667 0q42.666667 0 42.666666 42.666666l0 298.666667q0 42.666667-42.666666 42.666667l-298.666667 0q-42.666667 0-42.666667-42.666667l0-298.666667q0-42.666667 42.666667-42.666666Z" fill="#4A90E2" p-id="13454"></path><path d="M170.057143 200.533333m-42.666667 0a42.666667 42.666667 0 1 0 85.333334 0 42.666667 42.666667 0 1 0-85.333334 0Z" fill="#395AE3" p-id="13455"></path></svg>