<?xml version="1.0" standalone="no"?><!DOCTYPE svg PUBLIC "-//W3C//DTD SVG 1.1//EN" "http://www.w3.org/Graphics/SVG/1.1/DTD/svg11.dtd"><svg t="1747802449938" class="icon" viewBox="0 0 1024 1024" version="1.1" xmlns="http://www.w3.org/2000/svg" p-id="22555" xmlns:xlink="http://www.w3.org/1999/xlink" width="200" height="200"><path d="M943.104 472.096L551.904 80.896a57.6 57.6 0 0 0-81.6 0l-81.248 81.248 103.04 103.04a68.512 68.512 0 0 1 86.784 87.36l99.2 99.2a68.576 68.576 0 1 1-41.12 38.72l-92.64-92.64v243.744a68.512 68.512 0 1 1-56.448-1.984V393.6a68.672 68.672 0 0 1-37.28-90.048l-101.44-101.504L80.896 470.4a57.6 57.6 0 0 0 0 81.632l391.2 391.072a57.6 57.6 0 0 0 81.6 0L943.104 553.6a57.6 57.6 0 0 0 0-81.632" fill="#DD4C35" p-id="22556"></path><path d="M389.056 162.144l103.04 103.04a68.512 68.512 0 0 1 86.784 87.36l99.2 99.2a68.576 68.576 0 1 1-41.12 38.72l-92.64-92.64v243.744a68.512 68.512 0 1 1-56.448-1.984V393.6a68.672 68.672 0 0 1-37.28-90.048l-101.44-101.504" fill="#FFFFFF" p-id="22557"></path></svg>