<?xml version="1.0" standalone="no"?><!DOCTYPE svg PUBLIC "-//W3C//DTD SVG 1.1//EN" "http://www.w3.org/Graphics/SVG/1.1/DTD/svg11.dtd"><svg t="1747954769202" class="icon" viewBox="0 0 1024 1024" version="1.1" xmlns="http://www.w3.org/2000/svg" p-id="8778" xmlns:xlink="http://www.w3.org/1999/xlink" width="200" height="200"><path d="M0 0h1024v1024H0z" fill="#14B7DD" p-id="8779"></path><path d="M268.8 527.104H186.624a6.144 6.144 0 0 0-4.096 2.304l-5.632 10.496v2.304H269.056a3.328 3.328 0 0 0 2.816-2.816v-9.984a2.56 2.56 0 0 0-3.072-2.304zM278.016 489.216H90.368a6.4 6.4 0 0 0-4.608 2.048l-8.96 11.008v2.048h194.304a3.584 3.584 0 0 0 3.84-2.56l3.328-9.728a2.048 2.048 0 0 0-0.256-2.816zM153.6 451.328a5.632 5.632 0 0 0-4.608 2.048l-8.704 11.264v2.048h148.992a6.656 6.656 0 0 0 4.096-2.304l6.912-10.752c0-1.28 0-2.56-1.28-2.56zM920.064 490.752a128 128 0 0 0-58.112-91.648 153.6 153.6 0 0 0-117.248-20.992 173.312 173.312 0 0 0-115.2 68.608 176.64 176.64 0 0 0-28.16 53.504h-132.608a11.008 11.008 0 0 0-10.24 6.656c-5.632 10.752-15.616 32-20.992 44.8-2.816 7.168 0 12.288 7.936 12.288h79.36c-4.096 5.888-7.424 10.752-11.264 15.36a76.8 76.8 0 0 1-69.888 27.136 64.768 64.768 0 0 1-55.552-64.512 88.064 88.064 0 0 1 41.984-78.336 71.68 71.68 0 0 1 74.496-6.144 57.6 57.6 0 0 1 19.456 15.616c5.12 6.144 5.632 5.888 11.776 4.096l69.12-17.92c4.864-1.28 6.656-3.328 4.096-7.168a128 128 0 0 0-47.616-57.856 141.568 141.568 0 0 0-109.056-20.224 183.04 183.04 0 0 0-115.2 71.168 161.28 161.28 0 0 0-34.816 120.576 128 128 0 0 0 51.2 91.392 146.688 146.688 0 0 0 110.592 27.136A171.776 171.776 0 0 0 582.4 614.4a166.912 166.912 0 0 0 17.408-28.928A130.048 130.048 0 0 0 640 650.496a153.6 153.6 0 0 0 102.4 36.096c10.752-1.28 21.76-1.536 32.768-3.584a188.416 188.416 0 0 0 98.816-52.736 159.488 159.488 0 0 0 46.08-139.52z m-133.376 108.288a76.8 76.8 0 0 1-67.072 2.56 68.352 68.352 0 0 1-37.888-76.8 90.368 90.368 0 0 1 72.192-71.68 67.84 67.84 0 0 1 83.712 54.784 69.888 69.888 0 0 1 1.28 13.568 90.112 90.112 0 0 1-52.224 77.568z" fill="#FFFFFF" p-id="8780"></path></svg>