<?xml version="1.0" standalone="no"?><!DOCTYPE svg PUBLIC "-//W3C//DTD SVG 1.1//EN" "http://www.w3.org/Graphics/SVG/1.1/DTD/svg11.dtd"><svg t="1761002647367" class="icon" viewBox="0 0 1206 1024" version="1.1" xmlns="http://www.w3.org/2000/svg" p-id="2573" xmlns:xlink="http://www.w3.org/1999/xlink" width="235.546875" height="200"><path d="M552.228571 1024H347.428571C153.6 1024 0 1024 0 925.257143v-21.942857c0-186.514286 153.6-340.114286 347.428571-340.114286h204.8c190.171429 0 347.428571 153.6 347.428572 340.114286v21.942857c-3.657143 98.742857-164.571429 98.742857-347.428572 98.742857zM438.857143 537.6c-149.942857 0-274.285714-120.685714-274.285714-270.628571C164.571429 120.685714 285.257143 0 438.857143 0c149.942857 0 274.285714 120.685714 274.285714 270.628571 0 146.285714-124.342857 266.971429-274.285714 266.971429z" fill="#E7835A" p-id="2574"></path><path d="M621.714286 621.714286h512c40.228571 0 73.142857 32.914286 73.142857 73.142857v256c0 40.228571-32.914286 73.142857-73.142857 73.142857H621.714286c-40.228571 0-73.142857-32.914286-73.142857-73.142857v-256c0-40.228571 32.914286-73.142857 73.142857-73.142857z" fill="#FCC163" p-id="2575"></path><path d="M658.285714 731.428571h438.857143v36.571429H658.285714zM658.285714 841.142857h219.428572v36.571429h-219.428572z" fill="#FFFFFF" p-id="2576"></path></svg>