<?xml version="1.0" standalone="no"?><!DOCTYPE svg PUBLIC "-//W3C//DTD SVG 1.1//EN" "http://www.w3.org/Graphics/SVG/1.1/DTD/svg11.dtd"><svg t="1747783124173" class="icon" viewBox="0 0 1024 1024" version="1.1" xmlns="http://www.w3.org/2000/svg" p-id="14733" xmlns:xlink="http://www.w3.org/1999/xlink" width="200" height="200"><path d="M867.11 790.07L540.87 953.19a64.515 64.515 0 0 1-57.73 0L156.89 790.07a64.55 64.55 0 0 1-35.41-51.89L66.59 134.39C63.15 96.59 92.91 64 130.87 64h762.26c37.95 0 67.72 32.59 64.28 70.39l-54.89 603.79a64.55 64.55 0 0 1-35.41 51.89z" fill="#F05A1F" p-id="14734"></path><path d="M511.97 751.07c-3.03 0-6.05-0.57-8.89-1.7l-184.81-72.93c-8.32-3.28-14.18-10.9-15.19-19.79l-8.76-77.09c-1.45-13.24 8.07-25.28 21.37-26.79 13.17-0.88 25.21 8.13 26.79 21.37l7.06 62.59 162.43 64.1 162.68-64.04 16.96-154.87H305.36c-12.42 0-22.82-9.39-24.08-21.75l-21.05-206.74c-0.69-6.81 1.51-13.61 6.11-18.66 4.6-5.11 11.09-8 17.96-8h455.4c13.36 0 24.2 10.84 24.2 24.2s-10.84 24.2-24.2 24.2H311.09l16.14 158.33h391.43c6.87 0 13.43 2.9 18.03 8.07a24.06 24.06 0 0 1 6.05 18.78l-21.56 196.22c-1.01 8.95-6.87 16.58-15.19 19.85l-185.12 72.93a23.568 23.568 0 0 1-8.9 1.72z" fill="#F2F4C9" p-id="14735"></path></svg>