<?xml version="1.0" standalone="no"?><!DOCTYPE svg PUBLIC "-//W3C//DTD SVG 1.1//EN" "http://www.w3.org/Graphics/SVG/1.1/DTD/svg11.dtd"><svg t="1747802971400" class="icon" viewBox="0 0 1051 1024" version="1.1" xmlns="http://www.w3.org/2000/svg" p-id="34609" xmlns:xlink="http://www.w3.org/1999/xlink" width="205.2734375" height="200"><path d="M842.336865 0H209.338811C101.846486 0 13.837838 80.812973 13.837838 179.532108v305.152C13.837838 583.430919 101.818811 664.216216 209.338811 664.216216h632.998054c107.52 0 195.500973-80.812973 195.500973-179.532108V179.532108C1037.837838 80.785297 949.856865 0 842.336865 0z" fill="#00C57F" p-id="34610"></path><path d="M305.318054 710.905081c14.474378-14.502054 46.163027-18.376649 66.836757 5.31373l98.525405 112.529297c13.727135 13.671784 13.062919 36.531892-1.439135 51.033946l-107.769081 114.909405c-14.502054 14.502054-43.367784 13.699459-57.067243 0-13.671784-13.671784-14.474378-42.067027 0-56.596756l42.122378-47.823568L69.189189 890.326486a41.513514 41.513514 0 0 1 0-83.027027h268.67546l-37.500541-39.465513c-12.813838-12.813838-9.990919-38.884324 2.352433-54.022919z" fill="#4288FF" p-id="34611"></path><path d="M747.243243 608.864865a27.675676 27.675676 0 0 1 27.675676 27.675676v96.864864h110.702703a69.189189 69.189189 0 0 1 69.189189 69.18919v110.702702a69.189189 69.189189 0 0 1-69.189189 69.189189H581.189189a69.189189 69.189189 0 0 1-69.189189-69.189189v-110.702702a69.189189 69.189189 0 0 1 69.189189-69.18919h110.702703V636.540541a27.675676 27.675676 0 0 1 27.675676-27.675676h27.675675z m124.540541 207.567567h-276.756757v83.027027h276.756757v-83.027027z" fill="#00C57F" p-id="34612"></path></svg>