<?xml version="1.0" standalone="no"?><!DOCTYPE svg PUBLIC "-//W3C//DTD SVG 1.1//EN" "http://www.w3.org/Graphics/SVG/1.1/DTD/svg11.dtd"><svg t="1747802771483" class="icon" viewBox="0 0 1216 1024" version="1.1" xmlns="http://www.w3.org/2000/svg" p-id="27873" xmlns:xlink="http://www.w3.org/1999/xlink" width="237.5" height="200"><path d="M33.503489 381.955652a2.381765 2.381765 0 0 0 0-4.763529 2.381765 2.381765 0 0 0 0 4.763529z" fill="#AF9CFF" p-id="27874"></path><path d="M31.756862 395.198263l1152.774073 0 0 101.621957-1152.774073 0 0-101.621957Z" fill="#D7CAFF" p-id="27875"></path><path d="M1176.59172 395.214142a7.939215 7.939215 0 0 1 7.939215 7.939215v85.743526a7.939215 7.939215 0 0 1-7.939215 7.939216H39.696077a7.939215 7.939215 0 0 1-7.939215-7.939216v-85.743526a7.939215 7.939215 0 0 1 7.939215-7.939215h1136.895643m0-31.756862H39.696077a39.696077 39.696077 0 0 0-39.696077 39.696077v85.743526a39.696077 39.696077 0 0 0 39.696077 39.696077h1136.895643a39.696077 39.696077 0 0 0 39.696077-39.696077v-85.743526a39.696077 39.696077 0 0 0-39.696077-39.696077z" fill="#6244E2" p-id="27876"></path><path d="M83.599938 250.593394h1049.087921a7.939215 7.939215 0 0 1 7.939215 7.939216v104.92467H75.660723v-104.92467a7.939215 7.939215 0 0 1 7.939215-7.939216z" fill="#F2EBFF" p-id="27877"></path><path d="M1132.687859 250.593394a7.939215 7.939215 0 0 1 7.939215 7.939216v104.92467H75.660723v-104.92467a7.939215 7.939215 0 0 1 7.939215-7.939216h1049.087921m0-31.756861H83.599938a39.696077 39.696077 0 0 0-39.696077 39.696077v136.681532h1128.480074v-136.681532a39.696077 39.696077 0 0 0-39.696076-39.696077z" fill="#6244E2" p-id="27878"></path><path d="M75.660723 530.053776h1064.966351v454.234269a7.939215 7.939215 0 0 1-7.939215 7.939215H83.599938a7.939215 7.939215 0 0 1-7.939215-7.939215V530.053776z" fill="#F2EBFF" p-id="27879"></path><path d="M1140.627074 530.053776V984.303923a7.939215 7.939215 0 0 1-7.939215 7.939215H83.599938a7.939215 7.939215 0 0 1-7.939215-7.939215V530.053776h1064.966351m31.756861-31.756862H43.903861V984.303923a39.696077 39.696077 0 0 0 39.696077 39.696077h1049.087921a39.696077 39.696077 0 0 0 39.696076-39.696077V498.296914z" fill="#6244E2" p-id="27880"></path><path d="M323.538905 63.513723v155.32281h52.986324V104.781765a23.817646 23.817646 0 0 1 23.817646-23.817647h415.602047a23.817646 23.817646 0 0 1 23.817646 23.817647v114.054768h52.986323V63.513723a31.756862 31.756862 0 0 0-31.756861-31.756861H355.295767a31.756862 31.756862 0 0 0-31.756862 31.756861z" fill="#D7CAFF" p-id="27881"></path><path d="M860.99203 31.756862a31.756862 31.756862 0 0 1 31.756861 31.756861v155.32281h-52.986323V104.781765a23.817646 23.817646 0 0 0-23.817646-23.817647H400.342875a23.817646 23.817646 0 0 0-23.817646 23.817647v114.054768h-52.986324V63.513723a31.756862 31.756862 0 0 1 31.756862-31.756861h505.696263m0-31.756862H355.295767a63.513723 63.513723 0 0 0-63.513723 63.513723v187.079671h116.500046V112.72098h399.723616v137.872414h116.500047V63.513723a63.513723 63.513723 0 0 0-63.513723-63.513723z" fill="#6244E2" p-id="27882"></path><path d="M1132.67198 992.243138a7.939215 7.939215 0 0 0 7.939216-7.939215V530.053776H608.143898V992.243138z" fill="#D7CAFF" p-id="27883"></path><path d="M608.143898 659.034269H75.660723a15.878431 15.878431 0 0 1 0-31.756862H608.143898a15.878431 15.878431 0 0 1 0 31.756862zM1139.023352 865.453869H733.583501a15.878431 15.878431 0 0 1 0-31.756862h405.439851a15.878431 15.878431 0 0 1 0 31.756862zM802.019538 779.710343H341.91025a15.878431 15.878431 0 1 1 0-31.756862H802.019538a15.878431 15.878431 0 0 1 0 31.756862zM905.959746 779.710343h-53.812002a15.878431 15.878431 0 0 1 0-31.756862h53.812002a15.878431 15.878431 0 0 1 0 31.756862z" fill="#6244E2" p-id="27884"></path><path d="M1176.59172 395.214142H608.143898v101.621957h568.447822a7.939215 7.939215 0 0 0 7.939215-7.939216v-85.743526a7.939215 7.939215 0 0 0-7.939215-7.939215z" fill="#AF9CFF" p-id="27885"></path><path d="M1140.611196 258.53261a7.939215 7.939215 0 0 0-7.939216-7.939216H608.143898v112.863886h532.467298z" fill="#D7CAFF" p-id="27886"></path><path d="M839.762568 104.781765v114.054768h52.986323V63.513723a31.756862 31.756862 0 0 0-31.756861-31.756861H608.143898v49.223135h207.801024a23.817646 23.817646 0 0 1 23.817646 23.801768z" fill="#AF9CFF" p-id="27887"></path><path d="M231.983873 363.441402l228.649403 0 0 166.596495-228.649403 0 0-166.596495Z" fill="#D7CAFF" p-id="27888"></path><path d="M444.754846 363.45728a15.878431 15.878431 0 0 1 15.87843 15.878431v134.839634a15.878431 15.878431 0 0 1-15.87843 15.878431h-196.892542a15.878431 15.878431 0 0 1-15.878431-15.878431V379.335711a15.878431 15.878431 0 0 1 15.878431-15.878431h196.892542m0-31.756861h-196.892542a47.635292 47.635292 0 0 0-47.635292 47.635292v134.839634a47.635292 47.635292 0 0 0 47.635292 47.635292h196.892542a47.635292 47.635292 0 0 0 47.635292-47.635292V379.335711a47.635292 47.635292 0 0 0-47.635292-47.635292z" fill="#6244E2" p-id="27889"></path><path d="M759.878183 363.441402l228.649403 0 0 166.596495-228.649403 0 0-166.596495Z" fill="#AF9CFF" p-id="27890"></path><path d="M972.649155 363.45728a15.878431 15.878431 0 0 1 15.878431 15.878431v134.839634a15.878431 15.878431 0 0 1-15.878431 15.878431h-196.892542a15.878431 15.878431 0 0 1-15.87843-15.878431V379.335711a15.878431 15.878431 0 0 1 15.87843-15.878431h196.892542m0-31.756861h-196.892542a47.635292 47.635292 0 0 0-47.635292 47.635292v134.839634a47.635292 47.635292 0 0 0 47.635292 47.635292h196.892542a47.635292 47.635292 0 0 0 47.635292-47.635292V379.335711a47.635292 47.635292 0 0 0-47.635292-47.635292z" fill="#6244E2" p-id="27891"></path></svg>