<?xml version="1.0" standalone="no"?><!DOCTYPE svg PUBLIC "-//W3C//DTD SVG 1.1//EN" "http://www.w3.org/Graphics/SVG/1.1/DTD/svg11.dtd"><svg t="1747802881616" class="icon" viewBox="0 0 1024 1024" version="1.1" xmlns="http://www.w3.org/2000/svg" p-id="32393" xmlns:xlink="http://www.w3.org/1999/xlink" width="200" height="200"><path d="M130.35125 0h739.328Q953.939822 0 953.939822 82.212571v859.574858Q953.939822 1024 869.67925 1024H130.35125Q46.968393 1024 46.968393 941.787429V82.212571Q46.968393 0 130.35125 0z" fill="#F52330" p-id="32394"></path><path d="M334.273536 321.828571h362.496v41.837715h-74.020571v108.836571H719.882679v41.837714h-97.133714v197.485715H579.448393v-197.193143H456.568393a366.592 366.592 0 0 1-26.038857 113.810286 182.564571 182.564571 0 0 1-87.771429 87.771428l-23.698285-36.278857a168.813714 168.813714 0 0 0 75.483428-82.212571 364.251429 364.251429 0 0 0 18.432-83.968H310.282679v-40.96h104.740571v-109.129143H335.15125z m124.928 41.837715v108.836571h119.661714v-108.836571z" fill="#FFFFFF" p-id="32395"></path><path d="M500.454107 877.714286a364.544 364.544 0 1 1 142.482286-29.257143 363.373714 363.373714 0 0 1-142.482286 29.257143z m0-698.953143A333.238857 333.238857 0 1 0 833.692965 512 333.824 333.824 0 0 0 500.454107 178.761143z" fill="#FFFFFF" p-id="32396"></path></svg>