<?xml version="1.0" standalone="no"?><!DOCTYPE svg PUBLIC "-//W3C//DTD SVG 1.1//EN" "http://www.w3.org/Graphics/SVG/1.1/DTD/svg11.dtd"><svg t="1748051455226" class="icon" viewBox="0 0 1024 1024" version="1.1" xmlns="http://www.w3.org/2000/svg" p-id="19246" xmlns:xlink="http://www.w3.org/1999/xlink" width="200" height="200"><path d="M806.21 396.62H181.47c-25.01 0-45.29-20.28-45.29-45.29V223.66c0-25.01 20.28-45.29 45.29-45.29h624.74c25.01 0 45.29 20.28 45.29 45.29v127.67c0 25.01-20.28 45.29-45.29 45.29" fill="#FFFFFF" p-id="19247"></path><path d="M806.21 410.12H181.47c-32.42 0-58.79-26.37-58.79-58.79V223.66c0-32.42 26.37-58.79 58.79-58.79h624.74c32.42 0 58.79 26.37 58.79 58.79v127.67c0 32.42-26.37 58.79-58.79 58.79zM181.47 191.87c-17.53 0-31.79 14.26-31.79 31.79v127.67c0 17.53 14.26 31.79 31.79 31.79h624.74c17.53 0 31.79-14.26 31.79-31.79V223.66c0-17.53-14.26-31.79-31.79-31.79H181.47z" fill="#4E4D4D" p-id="19248"></path><path d="M779.72 636.94H181.47c-25.01 0-45.29-20.28-45.29-45.29V463.98c0-25.01 20.28-45.29 45.29-45.29h598.26c25.01 0 45.29 20.28 45.29 45.29v127.67c-0.01 25.02-20.29 45.29-45.3 45.29" fill="#FFFFFF" p-id="19249"></path><path d="M779.72 650.44H181.47c-32.42 0-58.79-26.37-58.79-58.79V463.98c0-32.42 26.37-58.79 58.79-58.79h598.26c32.42 0 58.79 26.37 58.79 58.79v127.67c-0.01 32.42-26.38 58.79-58.8 58.79zM181.47 432.19c-17.53 0-31.79 14.26-31.79 31.79v127.67c0 17.53 14.26 31.79 31.79 31.79h598.26c17.53 0 31.79-14.26 31.79-31.79V463.98c0-17.53-14.26-31.79-31.79-31.79H181.47z" fill="#4E4D4D" p-id="19250"></path><path d="M871.23 868.96H184.26c-25.01 0-45.29-20.29-45.29-45.3V695.99c0-25.01 20.28-45.29 45.29-45.29h686.97c25.01 0 45.29 20.28 45.29 45.29v127.67c-0.01 25.01-20.28 45.3-45.29 45.3" fill="#FFFFFF" p-id="19251"></path><path d="M871.23 882.46H184.26c-32.42 0-58.79-26.38-58.79-58.8V695.99c0-32.42 26.37-58.79 58.79-58.79h686.97c32.42 0 58.79 26.37 58.79 58.79v127.67c-0.01 32.42-26.38 58.8-58.79 58.8zM184.26 664.2c-17.53 0-31.79 14.26-31.79 31.79v127.67c0 17.53 14.26 31.8 31.79 31.8h686.97c17.53 0 31.79-14.26 31.79-31.8V695.99c0-17.53-14.26-31.79-31.79-31.79H184.26z" fill="#4E4D4D" p-id="19252"></path><path d="M271.15 287.49c0 18.57-17.25 33.62-38.53 33.62-21.29 0-38.54-15.05-38.54-33.62 0-18.57 17.25-33.61 38.54-33.61 21.28 0 38.53 15.05 38.53 33.61" fill="#FFFFFF" p-id="19253"></path><path d="M232.62 330.11c-26.21 0-47.54-19.12-47.54-42.62s21.33-42.61 47.54-42.61 47.53 19.12 47.53 42.61-21.32 42.62-47.53 42.62z m0-67.23c-16.29 0-29.54 11.04-29.54 24.61s13.25 24.62 29.54 24.62c16.28 0 29.53-11.04 29.53-24.62s-13.24-24.61-29.53-24.61z" fill="#4E4D4D" p-id="19254"></path><path d="M271.15 527.82c0 18.57-17.25 33.62-38.53 33.62-21.29 0-38.54-15.05-38.54-33.62 0-18.57 17.25-33.61 38.54-33.61 21.28-0.01 38.53 15.04 38.53 33.61" fill="#FFFFFF" p-id="19255"></path><path d="M232.62 570.44c-26.21 0-47.54-19.12-47.54-42.62 0-23.5 21.33-42.61 47.54-42.61s47.53 19.12 47.53 42.61c0 23.5-21.32 42.62-47.53 42.62z m0-67.23c-16.29 0-29.54 11.04-29.54 24.61s13.25 24.62 29.54 24.62c16.28 0 29.53-11.04 29.53-24.62 0-13.57-13.24-24.61-29.53-24.61z" fill="#4E4D4D" p-id="19256"></path><path d="M271.15 759.83c0 18.57-17.25 33.62-38.53 33.62-21.29 0-38.54-15.06-38.54-33.62 0-18.57 17.25-33.61 38.54-33.61 21.28-0.01 38.53 15.04 38.53 33.61" fill="#FFFFFF" p-id="19257"></path><path d="M232.62 802.45c-26.21 0-47.54-19.12-47.54-42.62 0-23.5 21.33-42.62 47.54-42.62s47.53 19.12 47.53 42.62c0 23.5-21.32 42.62-47.53 42.62z m0-67.24c-16.29 0-29.54 11.04-29.54 24.62 0 13.58 13.25 24.62 29.54 24.62 16.28 0 29.53-11.05 29.53-24.62 0-13.58-13.24-24.62-29.53-24.62z" fill="#4E4D4D" p-id="19258"></path></svg>