<?xml version="1.0" standalone="no"?><!DOCTYPE svg PUBLIC "-//W3C//DTD SVG 1.1//EN" "http://www.w3.org/Graphics/SVG/1.1/DTD/svg11.dtd"><svg t="1761195621933" class="icon" viewBox="0 0 1024 1024" version="1.1" xmlns="http://www.w3.org/2000/svg" p-id="4535" xmlns:xlink="http://www.w3.org/1999/xlink" width="200" height="200"><path d="M508.800633 60.457954c-247.51321 0-448.161043 200.648856-448.161043 448.16002 0 247.512187 200.647833 448.161043 448.161043 448.161043 247.512187 0 448.157973-200.648856 448.157973-448.161043C956.958606 261.10681 756.31282 60.457954 508.800633 60.457954zM784.240893 641.032772C756.503155 685.566034 709.001281 726.414371 643.019521 762.374374c-2.728134 1.472538-5.717212 2.212388-8.705266 2.212388-2.986007 0-6.010901-0.73985-8.702196-2.212388-55.655578-30.336936-98.141204-64.139809-126.727263-100.706633-14.900362 9.533121-30.758538 18.902512-47.316655 27.90249-2.731204 1.49198-5.716188 2.227738-8.705266 2.227738-2.988054 0-5.974062-0.735757-8.705266-2.227738-224.276996-122.209366-232.536101-252.602112-225.712695-302.983569 8.556886-63.030545 52.482305-113.705692 109.316731-126.133745 46.580898-10.160407 91.833545 7.503904 125.065414 47.723931 49.677423-60.523445 118.243031-60.281945 165.116595-31.495318 49.348941 30.296003 81.510432 92.701309 67.860551 166.777421 9.851369-3.560082 20.214391-5.4225 30.944779-5.4225 46.506197 0 88.922239 36.069497 100.907201 85.766362C813.965891 549.989219 815.035246 591.573313 784.240893 641.032772zM706.752054 476.318336c-21.907962 0-42.046628 13.31526-56.649208 37.491892-3.394307 5.604648-9.368368 9.035794-15.788591 9.035794-6.417153 0-12.390191-3.431146-15.786545-9.035794-14.639418-24.176632-34.777061-37.491892-56.686047-37.491892-29.615505 0-56.907081 23.863501-64.799842 56.706513-5.680373 23.605627-12.172227 106.017592 137.272433 190.67776 149.407821-84.643796 142.953829-167.072133 137.237641-190.67776C763.660158 500.18286 736.405421 476.318336 706.752054 476.318336z" fill="#d81e06" p-id="4536"></path></svg>