<?xml version="1.0" standalone="no"?><!DOCTYPE svg PUBLIC "-//W3C//DTD SVG 1.1//EN" "http://www.w3.org/Graphics/SVG/1.1/DTD/svg11.dtd"><svg t="1761002845308" class="icon" viewBox="0 0 1024 1024" version="1.1" xmlns="http://www.w3.org/2000/svg" p-id="5014" xmlns:xlink="http://www.w3.org/1999/xlink" width="200" height="200"><path d="M444.16 710.4c23.893333 0 42.666667 95.573333 42.666667 213.333333v5.12l-85.333334-34.133333c3.413333-104.106667 21.333333-184.32 42.666667-184.32z m151.466667 0c20.906667 0 37.973333 74.24 42.666666 172.8v3.84l-85.333333 34.133333c0-113.066667 17.92-204.8 40.533333-210.773333z m341.333333-426.666667a17.493333 17.493333 0 0 1 0 8.106667v461.653333a21.333333 21.333333 0 0 1-13.226667 20.053334l-228.266666 91.306666v-30.72c0-106.24-47.786667-192-106.666667-192a88.746667 88.746667 0 0 0-68.266667 49.066667 90.026667 90.026667 0 0 0-72.533333-51.2C389.12 640 341.333333 725.333333 341.333333 832v39.253333l-242.773333-97.706666a21.333333 21.333333 0 0 1-13.226667-20.053334V292.266667a21.333333 21.333333 0 0 1 21.333334-21.333334 17.493333 17.493333 0 0 1 8.106666 0L512 436.053333l397.226667-163.413333a20.906667 20.906667 0 0 1 29.44 11.52z m-489.386667 230.4a42.666667 42.666667 0 1 0 42.666667 42.666667 42.666667 42.666667 0 0 0-42.666667-42.24zM597.333333 512a42.666667 42.666667 0 1 0 42.666667 42.666667 42.666667 42.666667 0 0 0-42.666667-42.666667z m42.666667-418.133333a106.24 106.24 0 0 1 69.546667 98.133333 104.106667 104.106667 0 0 1-45.226667 85.333333l-128 98.986667a39.68 39.68 0 0 1-49.493333 0L363.946667 272.64a104.106667 104.106667 0 0 1-39.253334-80.64 106.24 106.24 0 0 1 69.973334-98.133333 114.773333 114.773333 0 0 1 122.026666 24.32A115.2 115.2 0 0 1 640 93.866667z" fill="#F23A63" p-id="5015"></path></svg>