<?xml version="1.0" standalone="no"?><!DOCTYPE svg PUBLIC "-//W3C//DTD SVG 1.1//EN" "http://www.w3.org/Graphics/SVG/1.1/DTD/svg11.dtd"><svg t="1749080386726" class="icon" viewBox="0 0 1024 1024" version="1.1" xmlns="http://www.w3.org/2000/svg" p-id="5697" xmlns:xlink="http://www.w3.org/1999/xlink" width="200" height="200"><path d="M853.76 166.933333c65.685333 65.685333 42.965333 201.92-45.482667 343.850667 88.448 141.930667 111.146667 278.186667 45.461334 343.872-65.706667 65.706667-201.92 42.965333-343.850667-45.461333-141.952 88.426667-278.186667 111.146667-343.872 45.44-65.706667-65.685333-42.965333-201.92 45.461333-343.850667-88.426667-141.930667-111.146667-278.165333-45.44-343.850667 65.664-65.706667 201.898667-42.986667 343.850667 45.44 141.930667-88.426667 278.165333-111.146667 343.850667-45.44zM250.88 568.469333a560.853333 560.853333 0 0 0-40.810667 89.536c-25.962667 74.176-25.557333 124.629333 1.194667 151.381334 26.773333 26.773333 77.226667 27.157333 151.381333 1.194666a560.938667 560.938667 0 0 0 89.536-40.789333 980.736 980.736 0 0 1-107.861333-93.44 980.693333 980.693333 0 0 1-93.44-107.882667z m517.994667 0a980.736 980.736 0 0 1-93.44 107.861334 980.544 980.544 0 0 1-107.861334 93.461333 560.938667 560.938667 0 0 0 89.536 40.789333c74.154667 25.962667 124.629333 25.578667 151.381334-1.194666 26.752-26.752 27.157333-77.226667 1.194666-151.381334a560.832 560.832 0 0 0-40.810666-89.536z m-258.986667-280.234666c-40.32 28.288-80.426667 62.378667-120.32 102.250666-39.850667 39.893333-73.941333 79.978667-102.250667 120.32 28.309333 40.32 62.4 80.426667 102.272 120.277334 39.872 39.893333 79.957333 73.962667 120.298667 102.250666 40.32-28.288 80.426667-62.378667 120.298667-102.250666 39.872-39.872 73.941333-79.978667 102.250666-120.298667-28.309333-40.32-62.378667-80.426667-102.250666-120.298667-39.893333-39.872-80-73.962667-120.32-102.250666zM211.264 212.181333c-26.752 26.752-27.157333 77.226667-1.194667 151.381334a560.938667 560.938667 0 0 0 40.810667 89.536 980.309333 980.309333 0 0 1 93.44-107.861334 980.629333 980.629333 0 0 1 107.861333-93.44A560.96 560.96 0 0 0 362.666667 210.986667c-74.154667-25.962667-124.608-25.557333-151.381334 1.194666z m445.845333-1.194666a560.917333 560.917333 0 0 0-89.536 40.789333 980.416 980.416 0 0 1 107.861334 93.44 980.330667 980.330667 0 0 1 93.44 107.882667 560.896 560.896 0 0 0 40.810666-89.536c25.962667-74.176 25.557333-124.629333-1.194666-151.381334-26.752-26.752-77.226667-27.157333-151.381334-1.194666z" fill="#222222" p-id="5698"></path><path d="M597.333333 512a85.290667 85.290667 0 0 1-93.696 84.928 85.269333 85.269333 0 0 1-75.328-68.266667 85.290667 85.290667 0 0 1 67.029334-100.352 85.290667 85.290667 0 0 1 100.352 67.050667A85.269333 85.269333 0 0 1 597.333333 512z" fill="#3B83FF" p-id="5699"></path><path d="M688.042667 349.290667c192.917333 192.917333 273.450667 425.130667 179.925333 518.677333-93.546667 93.525333-325.76 12.992-518.677333-179.925333C156.394667 495.125333 75.84 262.912 169.386667 169.365333c93.546667-93.525333 325.76-12.992 518.677333 179.925334z m-54.314667 54.314666c-88.128-88.149333-177.28-147.84-267.456-179.136-39.957333-13.866667-74.069333-19.370667-102.314667-16.512-18.218667 1.856-31.637333 7.082667-40.277333 15.722667-8.64 8.64-13.866667 22.058667-15.722667 40.277333-2.858667 28.245333 2.645333 62.357333 16.512 102.314667 31.274667 90.176 90.986667 179.328 179.136 267.456 88.128 88.149333 177.28 147.84 267.456 179.136 39.957333 13.866667 74.069333 19.370667 102.314667 16.512 18.218667-1.856 31.637333-7.082667 40.277333-15.722667 8.64-8.64 13.866667-22.058667 15.722667-40.277333 2.858667-28.245333-2.645333-62.357333-16.512-102.314667-31.274667-90.176-90.986667-179.328-179.136-267.456z" fill="#3B83FF" p-id="5700"></path></svg>