<?xml version="1.0" standalone="no"?><!DOCTYPE svg PUBLIC "-//W3C//DTD SVG 1.1//EN" "http://www.w3.org/Graphics/SVG/1.1/DTD/svg11.dtd"><svg t="1753580453317" class="icon" viewBox="0 0 1024 1024" version="1.1" xmlns="http://www.w3.org/2000/svg" p-id="5895" xmlns:xlink="http://www.w3.org/1999/xlink" width="200" height="200"><path d="M521.152 511.936m-416 0a416 416 0 1 0 832 0 416 416 0 1 0-832 0Z" fill="#AEECFF" p-id="5896"></path><path d="M904.576 673.472a239.424 239.424 0 0 0-286.4 234.688c0 2.688 0.704 5.12 0.768 7.744a416.576 416.576 0 0 0 285.632-242.432z" fill="#96C1CC" p-id="5897"></path><path d="M238.656 389.44c13.376-17.408 30.4-45.504 30.4-62.4a46.464 46.464 0 1 0-92.928 0c0 16.896 17.536 44.992 30.912 62.4 0 0 3.008 2.944 3.008 7.04 0 4.224-0.32 7.04-0.32 7.04h26.432s-0.576-5.312-0.32-7.04c0.832-4.864 2.816-7.04 2.816-7.04z" fill="#CAF5FF" p-id="5898"></path><path d="M208.768 399.04h28.224v6.144h-28.224z" fill="#3F6675" p-id="5899"></path><path d="M238.912 442.944a3.136 3.136 0 0 1-3.072 3.072h-24.96a3.136 3.136 0 0 1-3.072-3.072v-17.536c0-1.664 1.408-3.072 3.072-3.072h24.896c1.664 0 3.072 1.408 3.072 3.072v17.536z" fill="#1F83AA" p-id="5900"></path><path d="M221.824 405.184h1.536v17.152h-1.536zM212.672 422.336h-1.536l4.16-17.152h1.536zM235.008 422.336h-1.6l-4.096-17.152h1.536z" fill="#3F6675" p-id="5901"></path><path d="M587.008 922.304c-27.776-101.568-119.68-176.64-230.016-176.64a237.44 237.44 0 0 0-141.824 47.424 413.888 413.888 0 0 0 305.92 134.912c22.464 0 44.352-2.24 65.92-5.696z" fill="#D4F7FF" p-id="5902"></path><path d="M429.76 672.576c32.512-42.112 73.792-110.4 73.792-151.168a112.64 112.64 0 0 0-225.344 0c0 40.832 42.496 109.056 75.008 151.168 0 0 7.296 7.04 7.296 17.088 0 10.432-0.768 17.152-0.768 17.152h64.064s-1.408-12.864-0.704-17.152c1.984-11.712 6.656-17.088 6.656-17.088z" fill="#6ED850" p-id="5903"></path><path d="M389.056 706.752V408.832c-33.344 0.96-60.288 50.944-60.288 112.512 0 40.832 23.104 109.056 40.832 151.168 0 0 3.968 7.04 3.968 17.088 0 10.432-0.384 17.152-0.384 17.152h15.872z" fill="#6BED69" p-id="5904"></path><path d="M410.688 672.576c18.112-42.112 41.152-110.4 41.152-151.232 0-62.208-28.096-112.64-62.72-112.64v298.048h18.368s-0.768-12.864-0.384-17.152c0.96-11.648 3.584-17.024 3.584-17.024z" fill="#63C451" p-id="5905"></path><path d="M357.376 695.808h68.48v14.912h-68.48z" fill="#393939" p-id="5906"></path><path d="M430.464 802.24a7.552 7.552 0 0 1-7.552 7.488h-60.288a7.552 7.552 0 0 1-7.552-7.488v-42.496c0-4.096 3.392-7.488 7.552-7.488h60.288c4.16 0 7.552 3.392 7.552 7.488v42.496z" fill="#8C5300" p-id="5907"></path><path d="M389.056 710.72h3.776v41.472h-3.776zM366.912 752.256h-3.776l10.048-41.536h3.776zM420.992 752.256h-3.776l-9.984-41.536h3.776z" fill="#393939" p-id="5908"></path><path d="M820.096 800.832a238.848 238.848 0 0 0-223.744-156.288 239.424 239.424 0 0 0-239.424 239.424c0 3.712 0.96 7.104 1.088 10.816a414.72 414.72 0 0 0 462.08-93.952z" fill="#FFFFFF" p-id="5909"></path><path d="M789.184 569.216c76.608-58.368 180.928-158.272 200.064-229.632a203.968 203.968 0 0 0-393.856-105.856c-19.2 71.36 23.04 210.624 60.032 299.52 0 0 9.408 15.808 4.736 33.344-4.864 18.176-9.28 29.504-9.28 29.504l112 30.144s3.52-23.232 6.784-30.272c8.704-19.584 19.52-26.752 19.52-26.752z" fill="#F7DA52" p-id="5910"></path><path d="M701.952 609.856l139.968-520.832c-58.752-13.952-129.344 60.736-158.272 168.384-19.2 71.36-10.88 201.536 0.256 283.52 0 0 3.776 14.208-1.024 31.808a552.256 552.256 0 0 1-8.704 29.632l27.776 7.488z" fill="#E1BA15" p-id="5911"></path><path d="M755.776 560.192c51.52-65.152 123.84-173.568 142.976-244.928 29.312-108.8 3.84-210.176-56.832-226.432l-140.032 521.024 32.192 8.64s4.672-22.848 7.168-30.144c7.424-20.032 14.528-28.16 14.528-28.16z" fill="#E39F1A" p-id="5912"></path><path d="M651.712 575.872l119.808 32.256-6.976 25.792-119.808-32.256z" fill="#393939" p-id="5913"></path><path d="M729.472 796.224a13.632 13.632 0 0 1-16.704 9.6l-105.472-28.352a13.696 13.696 0 0 1-9.6-16.64l20.032-74.368a13.504 13.504 0 0 1 16.64-9.6l105.536 28.352a13.44 13.44 0 0 1 9.536 16.64l-19.968 74.368z" fill="#8C5300" p-id="5914"></path><path d="M700.096 616.768l6.464 1.728-19.52 72.512-6.464-1.792zM641.92 678.848l-6.592-1.728 37.056-67.84 6.4 1.728zM736.448 704.256l-6.656-1.6 2.112-77.376 6.592 1.728z" fill="#393939" p-id="5915"></path></svg>