<?xml version="1.0" standalone="no"?><!DOCTYPE svg PUBLIC "-//W3C//DTD SVG 1.1//EN" "http://www.w3.org/Graphics/SVG/1.1/DTD/svg11.dtd"><svg t="1748051904598" class="icon" viewBox="0 0 1028 1024" version="1.1" xmlns="http://www.w3.org/2000/svg" p-id="28103" xmlns:xlink="http://www.w3.org/1999/xlink" width="200.78125" height="200"><path d="M109.953707 27.306667h76.8v972.8H109.953707z" fill="#66E0FA" p-id="28104"></path><path d="M148.38784 415.470933a144.042667 144.042667 0 1 1 0-287.9488 144.042667 144.042667 0 0 1 0 287.9488zM148.38784 837.905067a144.042667 144.042667 0 1 1 0-288.017067 144.042667 144.042667 0 0 1 0 288.017067z" fill="#303C56" p-id="28105"></path><path d="M148.38784 415.470933a144.042667 144.042667 0 1 1 0-287.9488 144.042667 144.042667 0 0 1 0 287.9488z m0-63.965866a80.008533 80.008533 0 1 0 0-160.017067 80.008533 80.008533 0 0 0 0 160.017067zM148.38784 837.905067a144.042667 144.042667 0 1 1 0-288.017067 144.042667 144.042667 0 0 1 0 288.017067z m0-64.034134a80.008533 80.008533 0 1 0 0-160.017066 80.008533 80.008533 0 0 0 0 160.017066zM354.143573 275.729067V198.929067h618.018134v76.8zM354.143573 453.905067V377.105067h418.474667v76.8zM354.143573 718.984533V642.184533h618.018134v76.8zM354.143573 897.2288v-76.8h418.474667v76.8z" fill="#66E0FA" p-id="28106"></path></svg>