<?xml version="1.0" standalone="no"?><!DOCTYPE svg PUBLIC "-//W3C//DTD SVG 1.1//EN" "http://www.w3.org/Graphics/SVG/1.1/DTD/svg11.dtd"><svg t="1748051348719" class="icon" viewBox="0 0 1024 1024" version="1.1" xmlns="http://www.w3.org/2000/svg" p-id="15407" xmlns:xlink="http://www.w3.org/1999/xlink" width="200" height="200"><path d="M618.9056 232.0384a78.4384 78.4384 0 0 1-6.1952-16.9472 64.7168 64.7168 0 0 1-2.048-14.4896V98.048h1.6384a48.2816 48.2816 0 0 1 13.6704 2.048 72.448 72.448 0 0 1 16.5376 7.8336 215.04 215.04 0 0 1 23.1424 16.9472q13.6192 11.1616 34.304 29.3376a483.9424 483.9424 0 0 1 35.1232 33.8944q12.8 14.08 19.8656 23.552a49.3568 49.3568 0 0 1 8.704 16.128 48.5888 48.5888 0 0 1 1.6384 11.5712v12.288a1428.48 1428.48 0 0 1-146.3808-19.6096z m-114.944 487.1168a81.92 81.92 0 0 0-0.8192 11.5712v12.4416a226.048 226.048 0 0 0 10.752 70.2976 257.1776 257.1776 0 0 0 29.7472 62.0032H250.88a78.8992 78.8992 0 0 1-34.304-9.1136 145.0496 145.0496 0 0 1-34.7136-23.9616 138.9056 138.9056 0 0 1-26.88-33.8944 79.5648 79.5648 0 0 1-10.752-39.68V204.7488a88.3712 88.3712 0 0 1 8.2944-35.84 143.36 143.36 0 0 1 21.504-34.304 120.064 120.064 0 0 1 30.72-26.0608 70.0928 70.0928 0 0 1 36.4032-10.24h316.7232v103.168a127.488 127.488 0 0 0 5.12 34.304 112.64 112.64 0 0 0 15.7184 33.4848 86.6816 86.6816 0 0 0 27.2896 25.6 74.0864 74.0864 0 0 0 38.8608 9.9328h120.7296v205.9776a57.8048 57.8048 0 0 0-14.08-1.6384h-14.8992a226.4576 226.4576 0 0 0-113.3056 28.928 233.1136 233.1136 0 0 0-82.688 77.7216h-240.64a50.8928 50.8928 0 0 0-36.8128 14.8992 48.8448 48.8448 0 0 0-15.36 36.4032 52.224 52.224 0 0 0 52.1216 52.1216h204.288z m-204.288-310.9376a52.224 52.224 0 0 0-52.1216 52.1216 48.8448 48.8448 0 0 0 15.36 36.4032 50.8928 50.8928 0 0 0 36.8128 14.8992h310.1184a50.8416 50.8416 0 0 0 51.2-51.2 50.8928 50.8928 0 0 0-14.8992-36.8128 48.8448 48.8448 0 0 0-36.4032-15.36z" fill="#2273E5" p-id="15408"></path><path d="M739.6864 562.0224a181.9648 181.9648 0 1 1 0 363.8784 177.8176 177.8176 0 0 1-70.2976-14.08 181.2992 181.2992 0 0 1-57.9072-38.8608 187.0848 187.0848 0 0 1-39.2704-58.112 181.9648 181.9648 0 0 1 0-142.2336 187.0848 187.0848 0 0 1 39.2704-57.9072 181.248 181.248 0 0 1 57.9072-38.8608 177.8688 177.8688 0 0 1 70.2976-13.824z m103.3728 210.8928a16.2816 16.2816 0 0 0 13.2096-8.2944 36.9152 36.9152 0 0 0 0-39.68 16.2816 16.2816 0 0 0-13.2096-8.2944h-78.5408v-72.7552a14.1312 14.1312 0 0 0-7.0144-11.5712 33.2288 33.2288 0 0 0-19.456-5.12 29.3888 29.3888 0 0 0-18.5856 5.12 14.5408 14.5408 0 0 0-6.1952 11.5712v90.9824a45.2096 45.2096 0 0 0-1.6384 9.9328 33.7408 33.7408 0 0 0 5.7856 19.8656 16.2816 16.2816 0 0 0 13.2096 8.2944h112.64z" fill="#60D3FF" p-id="15409"></path></svg>