<?xml version="1.0" standalone="no"?><!DOCTYPE svg PUBLIC "-//W3C//DTD SVG 1.1//EN" "http://www.w3.org/Graphics/SVG/1.1/DTD/svg11.dtd"><svg t="1748051576639" class="icon" viewBox="0 0 1024 1024" version="1.1" xmlns="http://www.w3.org/2000/svg" p-id="21737" xmlns:xlink="http://www.w3.org/1999/xlink" width="200" height="200"><path d="M730.7776 947.2H327.3728a126.2592 126.2592 0 0 1-126.1056-126.1056V249.7536a126.2592 126.2592 0 0 1 126.1056-126.1056h52.7872V174.08H327.3728a75.776 75.776 0 0 0-75.6736 75.6736v571.5456a75.776 75.776 0 0 0 75.6736 75.6736h403.4048a75.776 75.776 0 0 0 75.6736-75.6736V249.7536A75.776 75.776 0 0 0 730.7776 174.08h-48.0256v-50.432h48.0256a126.2592 126.2592 0 0 1 126.1056 126.1056v571.5456A126.2592 126.2592 0 0 1 730.7776 947.2z" fill="#212A38" p-id="21738"></path><path d="M699.3408 397.4656H358.8096a25.2416 25.2416 0 0 1 0-50.432h340.5312a25.2416 25.2416 0 0 1 0 50.432zM699.3408 574.0032H358.8096a25.2416 25.2416 0 0 1 0-50.432h340.5312a25.2416 25.2416 0 0 1 0 50.432zM581.632 750.4896H358.8096a25.2416 25.2416 0 0 1 0-50.432h222.8224a25.2416 25.2416 0 1 1 0 50.432z" fill="#F49321" p-id="21739"></path><path d="M629.76 219.6992H428.2368a75.6736 75.6736 0 1 1 0-151.296H629.76a75.6736 75.6736 0 1 1 0 151.296z m-201.5232-100.864a25.2416 25.2416 0 1 0 0 50.432H629.76a25.2416 25.2416 0 1 0 0-50.432z" fill="#212A38" p-id="21740"></path></svg>