<?xml version="1.0" standalone="no"?><!DOCTYPE svg PUBLIC "-//W3C//DTD SVG 1.1//EN" "http://www.w3.org/Graphics/SVG/1.1/DTD/svg11.dtd"><svg t="1748051116592" class="icon" viewBox="0 0 1024 1024" version="1.1" xmlns="http://www.w3.org/2000/svg" p-id="3437" xmlns:xlink="http://www.w3.org/1999/xlink" width="200" height="200"><path d="M128 204.8m128 0l512 0q128 0 128 128l0 422.4q0 128-128 128l-512 0q-128 0-128-128l0-422.4q0-128 128-128Z" fill="#1B7AFE" p-id="3438"></path><path d="M281.6 332.8m-51.2 0a51.2 51.2 0 1 0 102.4 0 51.2 51.2 0 1 0-102.4 0Z" fill="#FFFFFF" p-id="3439"></path><path d="M478.9248 594.1504l102.4768-143.488a25.6 25.6 0 0 1 41.216-0.6016L813.568 701.312A25.6 25.6 0 0 1 793.1904 742.4H233.7152a25.6 25.6 0 0 1-19.6992-41.9456l157.7344-190.0544a25.6 25.6 0 0 1 40.832 1.9072l55.8464 81.728a6.4 6.4 0 0 0 10.496 0.1152z" fill="#FE9025" p-id="3440"></path><path d="M617.1136 444.7232a25.6 25.6 0 0 1 5.504 5.3376L813.568 701.312A25.6 25.6 0 0 1 793.1904 742.4H233.7152a25.6 25.6 0 0 1-19.6992-41.9456l157.7344-190.0544a25.6 25.6 0 0 1 40.832 1.9072l55.8464 81.728a6.4 6.4 0 0 0 10.496 0.1152l102.4768-143.488a25.6 25.6 0 0 1 35.712-5.9392z m-14.5664 42.3936l-92.3776 129.344a44.8 44.8 0 0 1-73.4464-0.768l-46.272-67.712L260.9536 704l506.4064-0.0128-164.8128-216.8704z" fill="#FFFFFF" p-id="3441"></path></svg>