<?xml version="1.0" standalone="no"?><!DOCTYPE svg PUBLIC "-//W3C//DTD SVG 1.1//EN" "http://www.w3.org/Graphics/SVG/1.1/DTD/svg11.dtd"><svg t="1748051752692" class="icon" viewBox="0 0 1024 1024" version="1.1" xmlns="http://www.w3.org/2000/svg" p-id="25943" xmlns:xlink="http://www.w3.org/1999/xlink" width="200" height="200"><path d="M676.88 930.46a2075.91 2075.91 0 0 1-330.62 0 277.6 277.6 0 0 1-254.6-254.6 2075.91 2075.91 0 0 1 0-330.62 277.6 277.6 0 0 1 254.6-254.6 2075.91 2075.91 0 0 1 330.62 0 277.6 277.6 0 0 1 254.6 254.6 2075.91 2075.91 0 0 1 0 330.62 277.6 277.6 0 0 1-254.6 254.6z" fill="#F43D3D" p-id="25944"></path><path d="M701.44 782.5h-380a49.11 49.11 0 1 1 0-98.22h380a49.11 49.11 0 1 1 0 98.22z m-380-63.22a14.11 14.11 0 1 0 0 28.22h380a14.11 14.11 0 1 0 0-28.22z" fill="#FFFFFF" p-id="25945"></path><path d="M668.32 718.63H354.39a17.49 17.49 0 0 1-17.5-17.5V474.4c0-96.2 78.26-174.47 174.46-174.47S685.82 378.2 685.82 474.4v226.73a17.5 17.5 0 0 1-17.5 17.5z m-296.43-35h278.93V474.4c0-76.9-62.57-139.47-139.47-139.47S371.89 397.5 371.89 474.4zM511.45 274.85a17.5 17.5 0 0 1-17.5-17.5V207a17.5 17.5 0 0 1 35 0v50.35a17.51 17.51 0 0 1-17.5 17.5zM295.8 456.9h-50.35a17.5 17.5 0 1 1 0-35h50.35a17.5 17.5 0 1 1 0 35zM364.2 330.36a17.48 17.48 0 0 1-12.38-5.12l-35.6-35.61A17.5 17.5 0 0 1 341 264.89l35.6 35.6a17.5 17.5 0 0 1-12.37 29.87zM778.65 456.9H728.3a17.5 17.5 0 0 1 0-35h50.35a17.5 17.5 0 0 1 0 35zM658.4 330.36a17.5 17.5 0 0 1-12.4-29.87l35.6-35.6a17.5 17.5 0 0 1 24.75 24.74l-35.6 35.61a17.48 17.48 0 0 1-12.35 5.12z" fill="#FFFFFF" p-id="25946"></path><path d="M511.58 630a17.51 17.51 0 0 1-14.87-26.7l40.91-66.2h-59.23A31.18 31.18 0 0 1 452 489.33l46.71-74.42a17.5 17.5 0 0 1 29.65 18.61l-43.05 68.57h59.17A31.18 31.18 0 0 1 571 549.66l-44.5 72a17.5 17.5 0 0 1-14.92 8.34z" fill="#FFFFFF" p-id="25947"></path></svg>