<?xml version="1.0" standalone="no"?><!DOCTYPE svg PUBLIC "-//W3C//DTD SVG 1.1//EN" "http://www.w3.org/Graphics/SVG/1.1/DTD/svg11.dtd"><svg t="1747783148010" class="icon" viewBox="0 0 1053 1024" version="1.1" xmlns="http://www.w3.org/2000/svg" p-id="17058" xmlns:xlink="http://www.w3.org/1999/xlink" width="205.6640625" height="200"><path d="M0 292.571429h1053.257143v672.914285a58.514286 58.514286 0 0 1-58.514286 58.514286H58.514286a58.514286 58.514286 0 0 1-58.514286-58.514286V292.571429z" fill="#0D90E0" p-id="17059"></path><path d="M58.514286 0h936.228571a58.514286 58.514286 0 0 1 58.514286 58.514286v175.542857H0V58.514286a58.514286 58.514286 0 0 1 58.514286-58.514286z" fill="#FFCC00" p-id="17060"></path><path d="M252.635429 644.3008l73.669485 73.669486a43.885714 43.885714 0 0 1-62.025143 62.083657l-99.7376-99.708343a43.885714 43.885714 0 0 1-5.412571-66.677029l103.453257-103.453257a43.885714 43.885714 0 0 1 62.0544 62.083657l-72.001828 71.972572zM817.9712 644.3008l-73.698743 73.669486a43.885714 43.885714 0 0 0 62.083657 62.083657l99.708343-99.708343a43.885714 43.885714 0 0 0 5.412572-66.677029l-103.453258-103.453257a43.885714 43.885714 0 0 0-62.0544 62.083657l71.972572 71.972572z" fill="#FFFFFF" p-id="17061"></path><path d="M585.142857 117.028571m-58.514286 0a58.514286 58.514286 0 1 0 117.028572 0 58.514286 58.514286 0 1 0-117.028572 0Z" fill="#FFFFFF" p-id="17062"></path><path d="M760.685714 117.028571m-58.514285 0a58.514286 58.514286 0 1 0 117.028571 0 58.514286 58.514286 0 1 0-117.028571 0Z" fill="#FFFFFF" p-id="17063"></path><path d="M936.228571 117.028571m-58.514285 0a58.514286 58.514286 0 1 0 117.028571 0 58.514286 58.514286 0 1 0-117.028571 0Z" fill="#FFFFFF" p-id="17064"></path><path d="M560.819708 410.469996m41.239082 15.009798l0 0q41.239082 15.009798 26.229283 56.248881l-150.097983 412.390818q-15.009798 41.239082-56.24888 26.229284l0 0q-41.239082-15.009798-26.229283-56.24888l150.097983-412.390819q15.009798-41.239082 56.24888-26.229284Z" fill="#FFFFFF" p-id="17065"></path></svg>