<?xml version="1.0" standalone="no"?><!DOCTYPE svg PUBLIC "-//W3C//DTD SVG 1.1//EN" "http://www.w3.org/Graphics/SVG/1.1/DTD/svg11.dtd"><svg t="1748051973579" class="icon" viewBox="0 0 1024 1024" version="1.1" xmlns="http://www.w3.org/2000/svg" p-id="30304" xmlns:xlink="http://www.w3.org/1999/xlink" width="200" height="200"><path d="M897.7408 763.8528H126.2592a66.8416 66.8416 0 0 1-66.7648-66.7648V206.0288A66.8416 66.8416 0 0 1 126.2592 139.264h771.5072a66.8416 66.8416 0 0 1 66.7648 66.7648V697.088a66.8416 66.8416 0 0 1-66.7904 66.7648zM126.2592 158.4384a47.616 47.616 0 0 0-47.5648 47.5648v491.0592a47.616 47.616 0 0 0 47.5648 47.5648h771.5072a47.616 47.616 0 0 0 47.5648-47.5648V206.0288a47.616 47.616 0 0 0-47.5648-47.5648H126.2592z" fill="#008CFF" p-id="30305"></path><path d="M431.104 433.2544h-114.176v-114.1504h7.7568a105.856 105.856 0 0 1 75.264 31.1296 105.6256 105.6256 0 0 1 31.1296 75.264v7.7568h0.0256z" fill="#1AC678" p-id="30306"></path><path d="M290.1248 336.7168A116.8384 116.8384 0 0 0 181.1968 453.12a116.8128 116.8128 0 0 0 116.6848 116.6848c61.696 0 112.384-48.1792 116.4032-108.928h-124.16v-124.16z" fill="#1AC678" p-id="30307"></path><path d="M811.5712 578.5344H515.5584a9.6 9.6 0 0 1 0-19.2h296.0128a9.6 9.6 0 0 1 0 19.2z m-24.6528-37.0176h-49.3312a9.6 9.6 0 0 1-9.6-9.6v-234.3424c0-5.2992 4.3008-9.6 9.6-9.6h49.3312c5.2992 0 9.6 4.3008 9.6 9.6v234.3424a9.6 9.6 0 0 1-9.6 9.6z m-39.7312-19.2h30.1312v-215.1424h-30.1312v215.1424z m-58.9568 19.2h-49.3312a9.6 9.6 0 0 1-9.6-9.6V408.576c0-5.2992 4.3008-9.6 9.6-9.6h49.3312c5.2992 0 9.6 4.3008 9.6 9.6v123.3408a9.6 9.6 0 0 1-9.6 9.6z m-39.7312-19.2h30.1312v-104.1408h-30.1312v104.1408z m-58.9312 19.2h-49.3312a9.6 9.6 0 0 1-9.6-9.6v-160.3584c0-5.2992 4.3008-9.6 9.6-9.6h49.3312c5.2992 0 9.6 4.3008 9.6 9.6v160.3584a9.6 9.6 0 0 1-9.6 9.6z m-39.7312-19.2h30.1312V381.184h-30.1312v141.1328z" fill="#008CFF" p-id="30308"></path><path d="M682.5728 881.5616H341.4272c-6.8352 0-12.9024-4.0704-15.5136-10.3936s-1.152-13.5168 3.712-18.3296l55.8336-55.296a16.64 16.64 0 0 1 11.8016-4.8384h229.4528a16.64 16.64 0 0 1 11.8016 4.8384l55.8336 55.296c4.864 4.8128 6.3232 12.0064 3.712 18.3296s-8.6784 10.3936-15.488 10.3936z m-285.2864-76.0832a3.8912 3.8912 0 0 0-2.7904 1.152l-55.8592 55.296a3.84 3.84 0 0 0-0.8704 4.352c0.3072 0.7424 1.28 2.4832 3.6864 2.4832h341.12a3.84 3.84 0 0 0 3.6864-2.4832 3.84 3.84 0 0 0-0.8704-4.352l-55.8336-55.296a3.9424 3.9424 0 0 0-2.7904-1.152h-229.4784z" fill="#00CFFF" p-id="30309"></path></svg>