<?xml version="1.0" standalone="no"?><!DOCTYPE svg PUBLIC "-//W3C//DTD SVG 1.1//EN" "http://www.w3.org/Graphics/SVG/1.1/DTD/svg11.dtd"><svg t="1761002481745" class="icon" viewBox="0 0 1024 1024" version="1.1" xmlns="http://www.w3.org/2000/svg" p-id="1591" xmlns:xlink="http://www.w3.org/1999/xlink" width="200" height="200"><path d="M512 185.6c129.792 0 238.0288 94.5152 256.64 218.5472l0.3072 2.176c95.232 23.3472 165.1456 107.008 168.1408 206.1824l0.1024 6.656c0 118.144-94.5664 214.8096-213.4016 219.0592a32 32 0 1 1-2.304-63.9488c84.608-3.0208 151.7056-71.6288 151.7056-155.136 0-76.3648-56.3968-140.928-131.7888-153.088l-5.9904-0.8704-27.008-3.328-1.0752-27.1872C703.3344 331.6224 617.216 249.6 512 249.6c-103.0144 0-187.7504 78.6944-194.9952 178.7392l-0.3328 6.272-1.0752 27.1872-26.9824 3.328c-78.4128 9.6768-137.8048 75.6224-137.8048 154.0096 0 83.7888 67.5328 152.5248 151.4496 155.264l265.2928-0.1024a32 32 0 1 1 0.0256 64l-266.3424 0.1024c-119.296-3.8656-214.4256-100.736-214.4256-219.264 0-99.7376 67.6864-184.96 161.4592-211.0464l6.784-1.792 0.3072-2.2016c18.3296-121.728 122.88-214.9888 249.4464-218.3936L512 185.6z" fill="#FB553C" p-id="1592"></path><path d="M550.784 555.8528h61.3376a21.376 21.376 0 0 0 15.3344-36.2752l-91.8528-94.208a21.376 21.376 0 0 0-30.592 0l-91.8528 94.208a21.376 21.376 0 0 0 15.36 36.352h61.2608v82.9952a30.5152 30.5152 0 0 0 61.0048 0v-83.072z" fill="#FB553C" p-id="1593"></path></svg>