<?xml version="1.0" standalone="no"?><!DOCTYPE svg PUBLIC "-//W3C//DTD SVG 1.1//EN" "http://www.w3.org/Graphics/SVG/1.1/DTD/svg11.dtd"><svg t="1747802375607" class="icon" viewBox="0 0 1024 1024" version="1.1" xmlns="http://www.w3.org/2000/svg" p-id="20339" xmlns:xlink="http://www.w3.org/1999/xlink" width="200" height="200"><path d="M102.4 170.666667v682.666666h819.2V170.666667H102.4z m0-68.266667h819.2a68.266667 68.266667 0 0 1 68.266667 68.266667v682.666666a68.266667 68.266667 0 0 1-68.266667 68.266667H102.4a68.266667 68.266667 0 0 1-68.266667-68.266667V170.666667a68.266667 68.266667 0 0 1 68.266667-68.266667z" fill="#6581AD" p-id="20340"></path><path d="M267.195733 510.293333l120.695467 120.661334L339.626667 679.253333l-120.695467-120.661333L170.666667 510.293333 339.626667 341.333333l48.264533 48.264534-120.695467 120.695466zM753.3568 510.293333l-120.661333 120.661334L680.96 679.253333l120.661333-120.661333L849.92 510.293333 680.96 341.333333l-48.2304 48.264534 120.661333 120.695466zM514.048 377.9584h68.266667L512 682.666667h-68.266667z" fill="#2BAAFF" p-id="20341"></path></svg>