<?xml version="1.0" standalone="no"?><!DOCTYPE svg PUBLIC "-//W3C//DTD SVG 1.1//EN" "http://www.w3.org/Graphics/SVG/1.1/DTD/svg11.dtd"><svg t="1753580474875" class="icon" viewBox="0 0 1024 1024" version="1.1" xmlns="http://www.w3.org/2000/svg" p-id="8409" xmlns:xlink="http://www.w3.org/1999/xlink" width="200" height="200"><path d="M534.222 214.378h112c20.619 0 37.334 16.831 37.334 37.594v661.355c0 20.762-16.715 37.594-37.334 37.594h-112c-20.618 0-37.333-16.832-37.333-37.594V251.972c0-20.763 16.715-37.594 37.333-37.594z" fill="#5DA3D7" p-id="8410"></path><path d="M515.556 346.342h149.333v171.86H515.556zM515.556 555.029h149.333v36.827H515.556z" fill="#81BEEC" p-id="8411"></path><path d="M284.816 257.206l198.235 52.397c19.943 5.271 31.866 25.825 26.632 45.907l-0.1 0.375-155.836 573.702c-5.4 19.88-25.69 31.676-45.488 26.443L110.023 903.634C90.08 898.362 78.157 877.809 83.391 857.726l0.1-0.374L239.327 283.65c5.4-19.881 25.69-31.677 45.489-26.444z" fill="#ED736A" p-id="8412"></path><path d="M186.343 543.07l234.398 61.955-45.092 166.004L141.25 709.074zM197.616 501.569l234.398 61.955-6.442 23.715-234.398-61.955z" fill="#F8CB8A" p-id="8413"></path><path d="M702.222 64h205.334c20.618 0 37.333 16.832 37.333 37.594v814.802c0 20.762-16.715 37.594-37.333 37.594H702.222c-20.618 0-37.333-16.832-37.333-37.594V101.594C664.889 80.832 681.604 64 702.222 64z" fill="#2BDCAD" p-id="8414"></path><path d="M804.889 315.652c25.773 0 46.667 21.04 46.667 46.993v243.597c0 25.953-20.894 46.993-46.667 46.993-25.773 0-46.667-21.04-46.667-46.993V362.645c0-25.953 20.894-46.993 46.667-46.993zM804.889 690.062c25.773 0 46.667 21.04 46.667 46.993v47.185c0 25.953-20.894 46.993-46.667 46.993-25.773 0-46.667-21.04-46.667-46.993v-47.185c0-25.954 20.894-46.993 46.667-46.993z" fill="#B8F6EB" p-id="8415"></path><path d="M758.222 232.791a46.667 46.034 0 1 0 93.334 0 46.667 46.034 0 1 0-93.334 0Z" fill="#B7F5EA" p-id="8416"></path><path d="M672.723 939.645c-6.776 6.959-16.217 11.276-26.66 11.276h-112c-20.619 0-37.333-16.832-37.333-37.594V404L353.054 929.336c-5.437 19.882-25.758 31.707-45.556 26.511L109.261 903.821C89.318 898.588 77.425 878.065 82.697 857.982c0.032-0.125 0.066-0.25 0.1-0.374L239.702 283.9c5.437-19.881 25.758-31.706 45.556-26.51l198.237 52.025a36.993 36.993 0 0 1 13.235 6.492v-63.935c0-20.763 16.714-37.594 37.333-37.594h112c6.8 0 13.176 1.83 18.667 5.03V101.593C664.73 80.832 681.444 64 702.063 64h205.333c20.62 0 37.334 16.832 37.334 37.594v814.802c0 20.762-16.715 37.594-37.334 37.594H702.063c-11.902 0-22.504-5.609-29.34-14.345z m10.673-26.318v3.069c0 10.381 8.358 18.797 18.667 18.797h205.333c10.31 0 18.667-8.416 18.667-18.797V101.594c0-10.381-8.357-18.797-18.667-18.797H702.063c-10.31 0-18.667 8.416-18.667 18.797v811.733z m-18.666 0V251.972c0-10.381-8.358-18.797-18.667-18.797h-112c-10.31 0-18.667 8.416-18.667 18.797v661.355c0 10.381 8.358 18.797 18.667 18.797h112c10.31 0 18.667-8.416 18.667-18.797zM280.485 275.57c-9.9-2.598-20.06 3.314-22.778 13.255L100.802 862.534l-0.05 0.187c-2.636 10.04 3.31 20.302 13.282 22.92l198.237 52.025c9.9 2.598 20.06-3.315 22.778-13.255l156.905-573.708 0.05-0.187c2.636-10.041-3.31-20.303-13.282-22.92l-198.237-52.025z" fill="#833F32" p-id="8417"></path></svg>