<?xml version="1.0" standalone="no"?><!DOCTYPE svg PUBLIC "-//W3C//DTD SVG 1.1//EN" "http://www.w3.org/Graphics/SVG/1.1/DTD/svg11.dtd"><svg t="1747781274661" class="icon" viewBox="0 0 1024 1024" version="1.1" xmlns="http://www.w3.org/2000/svg" p-id="6065" xmlns:xlink="http://www.w3.org/1999/xlink" width="200" height="200"><path d="M228.352 715.562667a56.106667 56.106667 0 0 0 0 77.824c11.946667 11.989333 26.922667 17.962667 41.856 17.962666s29.909333-5.973333 38.869333-14.976l185.344-185.6-80.725333-77.824-185.344 182.613334z" fill="#2794F8" p-id="6066"></path><path d="M706.688 586.837333h-8.96c-14.933333 0-26.922667 2.986667-38.869333 5.973334l-227.2-230.485334c2.986667-11.989333 5.973333-23.936 5.973333-38.912v-8.96c-2.986667-56.874667-53.802667-101.76-110.634667-101.76-17.92 0-35.882667 2.986667-47.829333 11.989334L353.92 299.52c2.986667 2.986667 5.973333 5.973333 5.973333 11.989333 5.973333 11.989333 2.986667 29.952-8.96 38.912-5.973333 8.96-14.933333 11.989333-23.936 11.989334-5.973333 0-8.96 0-14.933333-2.986667-2.986667-2.986667-8.96-2.986667-11.946667-8.96L225.365333 275.541333c-5.973333 14.976-11.946667 32.938667-11.946666 47.914667 0 59.861333 44.842667 107.776 104.618666 110.762667h8.96c14.933333 0 26.922667-2.986667 38.869334-5.973334l230.186666 230.485334c-2.986667 11.989333-5.973333 23.936-5.973333 38.912v8.96c2.986667 59.861333 50.816 104.746667 110.634667 104.746666 17.92 0 32.896-2.986667 47.829333-11.989333l-74.752-74.837333c-2.986667-2.986667-5.973333-8.96-8.96-11.989334-5.973333-11.989333-2.986667-29.952 8.96-38.912 5.973333-5.973333 17.92-11.989333 26.922667-11.989333 2.986667 0 8.96 0 11.946666 2.986667 5.973333 2.986667 8.96 2.986667 11.946667 8.96l74.752 74.837333c5.973333-14.976 11.946667-29.952 11.946667-47.914667 0.042667-59.776-44.8-110.677333-104.618667-113.664z" fill="#2794F8" p-id="6067"></path><path d="M688.384 374.613333l80.512-41.813333L810.666667 252.16 771.882667 213.333333l-80.554667 41.813334-41.728 80.64-98.432 95.573333 41.728 41.813333z" fill="#67B4FA" p-id="6068"></path></svg>