<?xml version="1.0" standalone="no"?><!DOCTYPE svg PUBLIC "-//W3C//DTD SVG 1.1//EN" "http://www.w3.org/Graphics/SVG/1.1/DTD/svg11.dtd"><svg t="1748051774072" class="icon" viewBox="0 0 1024 1024" version="1.1" xmlns="http://www.w3.org/2000/svg" p-id="26099" xmlns:xlink="http://www.w3.org/1999/xlink" width="200" height="200"><path d="M518.9632 946.4832c-10.5984 0-20.992-1.7408-30.0544-5.2736-106.7008-41.1648-199.3216-107.3664-275.3536-196.8128-45.824-53.9136-70.6048-121.0368-73.6768-199.5776-1.4336-36.8128-1.0752-73.984-0.768-109.8752 0.1536-14.4384 0.256-28.8768 0.3072-43.3152-0.2048-1.4848-0.3584-3.0208-0.3584-4.608 0-15.5648 0.0512-31.0784 0.1024-46.6432 0.1024-37.4272 0.256-76.1856-0.4096-114.0736s18.3808-62.6688 55.0912-71.7312c48.4864-11.9296 96.9728-24.064 145.408-36.2496 52.4288-13.1584 106.5984-26.7264 160-39.8336 12.9536-3.1744 27.8528-2.7648 44.288 1.28 97.536 23.808 196.5568 48.4352 292.3008 72.2944l2.0992 0.512c48.0256 11.9808 61.9008 29.8496 61.9008 79.6672l0.0512 77.568c0.0512 69.5808 0.1024 141.568-0.1024 212.3776-0.3072 115.6608-46.7456 212.4288-137.8816 287.5904-58.2144 47.9744-127.3856 101.632-212.224 131.584-9.6768 3.4304-20.2752 5.12-30.72 5.12zM200.4992 382.4128c0.256 1.4848 0.3584 3.072 0.3584 4.608 0 16.1792-0.1536 32.3584-0.3072 48.4864-0.3584 35.1744-0.7168 71.5264 0.7168 106.8544 2.56 64.4608 22.4256 119.04 59.136 162.2016 69.2736 81.5104 153.6 141.8752 250.624 179.3024 3.7888 1.4848 12.2368 1.6384 18.176-0.4608 75.4176-26.624 139.4688-76.4416 193.5872-121.088 77.4656-63.8464 115.2512-142.4384 115.5584-240.3328 0.2048-70.7072 0.1536-142.592 0.1024-212.1216l-0.0512-77.6192c0-8.5504-0.3072-13.2096-0.6656-15.7184-2.2528-0.9216-6.5536-2.304-14.6432-4.3008l-2.0992-0.512c-95.6928-23.8592-194.6112-48.4864-291.9936-72.2432-7.5264-1.8432-12.8512-1.8432-15.104-1.28-53.248 13.056-107.3664 26.624-159.6928 39.7312-47.7184 11.9808-97.0752 24.3712-145.7152 36.3008-5.5808 1.3824-7.3728 2.816-7.5264 2.9184 0.0512 0-0.9216 2.1504-0.8192 8.0384 0.6656 38.5536 0.512 77.6192 0.4096 115.3536 0.0512 14.0288 0 27.9552-0.0512 41.8816z" fill="#00A0E9" p-id="26100"></path><path d="M525.4144 779.5712c-2.7136 0-5.4272-0.3584-8.1408-1.1264a30.75584 30.75584 0 0 1-22.5792-29.6448v-165.2224h-15.0016c-7.3728 0-14.9504 0.0512-22.4768 0.0512-17.0496 0.1024-34.7136 0.1536-52.2752-0.2048-26.1632-0.6144-47.4624-11.7248-58.4192-30.5152-10.5984-18.1248-10.0352-40.9088 1.4848-62.5152 34.5088-64.6144 70.2464-129.8944 104.7552-193.024 13.3632-24.4224 26.7264-48.8448 40.0384-73.2672a30.72 30.72 0 0 1 32.8704-15.4624l5.632 1.1264c14.3872 2.816 24.832 15.4624 24.832 30.1568v163.4304h4.096c25.5488 0 50.3808-0.0512 75.2128 0.0512 40.6528 0.1024 58.88 16.4864 67.0208 30.1568 8.0896 13.6704 13.7216 37.3248-5.4784 72.6528-49.7664 91.5456-95.0784 174.2336-145.152 258.3552a30.96064 30.96064 0 0 1-26.4192 15.0016z m0-257.4336c16.9472 0 30.72 13.7728 30.72 30.72v81.5616c28.6208-50.7392 56.9344-102.5536 86.8352-157.5936 2.6624-4.9152 4.0448-8.4992 4.8128-10.9056-2.56-0.5632-6.5536-1.1264-12.4928-1.1264-24.7808-0.0512-49.5616-0.0512-75.008-0.0512h-34.816c-16.9472 0-30.72-13.7728-30.72-30.72V348.7232c-30.72 56.1152-62.1056 113.664-92.5184 170.5984-0.4096 0.8192-0.768 1.536-1.024 2.0992 1.28 0.256 2.9696 0.512 5.1712 0.5632 16.6912 0.3584 33.9456 0.3072 50.5856 0.2048 7.5776-0.0512 15.104-0.1024 22.784-0.0512h45.6704z" fill="#F39800" p-id="26101"></path></svg>