<?xml version="1.0" standalone="no"?><!DOCTYPE svg PUBLIC "-//W3C//DTD SVG 1.1//EN" "http://www.w3.org/Graphics/SVG/1.1/DTD/svg11.dtd"><svg t="1753525092963" class="icon" viewBox="0 0 1024 1024" version="1.1" xmlns="http://www.w3.org/2000/svg" p-id="5660" xmlns:xlink="http://www.w3.org/1999/xlink" width="200" height="200"><path d="M920.50993 177.236945A136.414777 136.414777 0 0 0 818.979148 55.142965a1199.825795 1199.825795 0 0 0-306.611948-36.719993A1198.173395 1198.173395 0 0 0 205.020852 55.142965 136.781977 136.781977 0 0 0 102.93927 177.236945v271.360753a601.289897 601.289897 0 0 0 282.376752 521.056711 263.098755 263.098755 0 0 0 83.354385 32.497195 291.00595 291.00595 0 0 0 38.188794 3.121199h10.281598a296.881149 296.881149 0 0 0 38.372394-3.121199 264.016755 264.016755 0 0 0 83.170785-32.497195 601.289897 601.289897 0 0 0 282.376752-521.056711z" fill="#d81e06" p-id="5661"></path><path d="M506.859201 1024h-4.039199a344.433541 344.433541 0 0 1-36.719994-3.304799 285.497951 285.497951 0 0 1-89.963985-35.067594C190.700055 869.592426 84.579273 673.87486 84.579273 448.597698V177.236945A155.325573 155.325573 0 0 1 199.880053 36.782969a1238.748989 1238.748989 0 0 1 312.119947-36.719994 1239.483388 1239.483388 0 0 1 312.119947 36.719994 154.958374 154.958374 0 0 1 114.74998 139.535976v272.278753c0 225.277162-106.120782 420.994728-291.00595 536.662709a284.763551 284.763551 0 0 1-89.780385 35.067594 352.87914 352.87914 0 0 1-37.637993 3.304799H506.859201zM510.5312 36.782969A1146.765404 1146.765404 0 0 0 209.978052 72.034163 117.87118 117.87118 0 0 0 121.299267 178.154944v270.442754C121.299267 661.022862 221.17765 844.622831 395.04682 954.782812a251.715557 251.715557 0 0 0 76.744787 30.110395 312.119947 312.119947 0 0 0 35.801994 2.753999h8.996398a320.565545 320.565545 0 0 0 35.801994-2.753999A252.633557 252.633557 0 0 0 628.95318 954.782812c174.05277-110.159981 273.747553-293.75995 273.747553-506.185114V177.604144a117.87118 117.87118 0 0 0-88.127985-105.569981A1148.968604 1148.968604 0 0 0 512.3672 36.782969z" fill="#d81e06" p-id="5662"></path><path d="M197.126054 168.424146c36.719994-18.359997 86.842785-26.989195 154.774773-2.753999 0 0 65.361589 29.926795 91.799985 69.584388a25.703996 25.703996 0 0 1-2.2032 29.926795 26.071196 26.071196 0 0 1-35.618394 4.222799c-20.012397-18.359997-72.338388-68.849988-132.008377-81.151186a174.78717 174.78717 0 0 0-71.053188-2.0196 9.547198 9.547198 0 0 1-5.691599-17.809197zM847.069943 168.424146c-36.719994-18.359997-86.842785-26.989195-154.774774-2.753999 0 0-65.361589 29.926795-92.901584 69.584388a26.071196 26.071196 0 0 0 38.005194 34.149594c20.012397-18.359997 72.154788-68.849988 131.824777-81.151186a175.70517 175.70517 0 0 1 71.236788-2.0196 9.547198 9.547198 0 0 0 6.609599-17.809197z" fill="#2c2c2c" p-id="5663"></path><path d="M408.816818 407.471305H231.459248a18.359997 18.359997 0 0 1-15.605997-25.153195c11.015998-22.031996 38.372393-50.673591 104.651982-50.673592s93.635984 28.641595 104.835582 50.673592a18.359997 18.359997 0 0 1-16.523997 25.153195z" fill="#2c2c2c" p-id="5664"></path><path d="M408.816818 425.831302H231.459248a36.719994 36.719994 0 0 1-32.129995-51.775191c11.566798-22.766396 42.595193-60.77159 121.17598-60.77159s110.159981 38.005194 121.175979 60.77159a34.700394 34.700394 0 0 1-1.4688 34.516794 35.618394 35.618394 0 0 1-31.395594 17.258397z m-89.045985-75.826787c-44.247592 0-74.908787 14.137198-88.311585 40.575593l176.62317-1.4688c-13.586398-25.153196-44.063992-39.106793-88.311585-39.106793z" fill="#ffffff" p-id="5665"></path><path d="M798.966751 407.471305h-178.09197a18.359997 18.359997 0 0 1-15.605997-25.153195c11.015998-22.031996 38.372393-50.673591 104.651982-50.673592s93.635984 28.641595 104.835582 50.673592a18.359997 18.359997 0 0 1-15.789597 25.153195z" fill="#2c2c2c" p-id="5666"></path><path d="M798.966751 425.831302h-178.09197a36.719994 36.719994 0 0 1-32.129994-51.775191c11.566798-22.766396 42.595193-60.77159 121.175979-60.77159s110.159981 38.005194 121.17598 60.77159a34.700394 34.700394 0 0 1-1.4688 34.516794 35.618394 35.618394 0 0 1-30.661195 17.258397z m-89.045985-75.826787c-44.247592 0-74.908787 14.137198-88.311585 40.575593l176.62317-1.4688c-13.586398-25.153196-44.063992-39.106793-88.311585-39.106793z" fill="#ffffff" p-id="5667"></path><path d="M266.159642 651.659264s42.044393 121.910379 102.081583 145.411175a468.91432 468.91432 0 0 0 259.059555 10.832398 169.646371 169.646371 0 0 0 119.52358-139.352376 861.818253 861.818253 0 0 1-179.560769 76.377587l-50.489992-55.079991-53.243991 51.040791S340.150429 734.462849 266.159642 651.659264z" fill="#ffffff" p-id="5668"></path><path d="M470.139207 444.191299V532.502884a47.001592 47.001592 0 0 1-21.664796 44.063992c-8.629199 3.488399-25.153196 6.425999-25.703996 26.071196a34.516794 34.516794 0 0 0 30.844795 34.700394c13.402798 1.1016 19.645197 1.1016 25.887596 9.363598s5.140799 18.359997 33.965994 18.359997c29.008795 0 27.907195-10.281598 34.149594-18.359997s12.301198-8.261999 25.703996-9.363598a34.700394 34.700394 0 0 0 31.028394-34.700394c0-19.645197-17.258397-22.582796-25.887595-26.071196a47.368792 47.368792 0 0 1-22.582796-44.063992v-88.311585" fill="#FFFFFF" p-id="5669"></path><path d="M512.5508 684.340058c-28.457995 0-39.106793-8.812798-47.001592-23.133596l-1.6524-2.754a24.418796 24.418796 0 0 0-10.281598-1.835999H451.77921a53.060391 53.060391 0 0 1-47.919592-53.794791 44.247592 44.247592 0 0 1 34.149595-41.309993l2.937599-1.1016A31.762795 31.762795 0 0 0 451.77921 532.502884v-88.311585a18.359997 18.359997 0 0 1 36.719994 0V532.502884a64.076389 64.076389 0 0 1-33.047994 60.955189l-4.59 1.6524c-9.547198 3.488399-9.730798 4.406399-9.730798 8.078399a15.973197 15.973197 0 0 0 13.953598 15.789597h2.203199a43.329593 43.329593 0 0 1 36.719994 16.523997c1.6524 2.2032 2.937599 4.589999 4.406399 6.793199l1.4688 2.754a34.333194 34.333194 0 0 0 13.402798 1.652399c10.832398 0 13.586398-1.6524 13.586397-1.835999l1.4688-2.5704a47.368792 47.368792 0 0 1 4.406399-6.793199 43.329593 43.329593 0 0 1 36.719994-16.523997h2.2032a16.156797 16.156797 0 0 0 13.953597-15.789597c0-3.671999 0-4.589999-9.914398-8.078399l-4.589999-1.6524A64.443589 64.443589 0 0 1 537.520396 532.502884v-88.311585a18.359997 18.359997 0 1 1 36.719993 0V532.502884a31.762795 31.762795 0 0 0 10.465199 26.989195l2.937599 1.1016a44.431192 44.431192 0 0 1 34.149594 41.309993 53.427591 53.427591 0 0 1-47.919592 53.794791h-2.203199a49.388392 49.388392 0 0 0-9.914398 1.1016c-1.1016 1.6524-1.4688 2.5704-2.0196 3.488399-8.078399 15.238797-18.727197 24.051596-47.185192 24.051596z m-13.402798-38.372393z" fill="#d81e06" p-id="5670"></path><path d="M512 840.400031h-1.4688a332.132343 332.132343 0 0 1-157.528773-30.293994c-71.971188-36.719994-85.741185-125.765979-86.291985-129.621578a18.359997 18.359997 0 0 1 36.719994-5.324399s11.750398 73.439987 66.830388 102.448782a304.041548 304.041548 0 0 0 141.371976 26.071196A304.225148 304.225148 0 0 0 653.739176 777.608842c55.079991-28.457995 66.830389-101.714383 66.830388-102.448782a18.359997 18.359997 0 0 1 36.719994 5.324399c0 3.855599-14.320798 91.799984-86.291985 129.621578a332.132343 332.132343 0 0 1-157.528773 30.293994z" fill="#d81e06" p-id="5671"></path><path d="M482.624005 661.022862a228.581961 228.581961 0 0 1-33.047994 46.267192 7.160399 7.160399 0 0 1-5.324399 2.0196 335.987943 335.987943 0 0 1-159.915573-65.177989A138.617976 138.617976 0 0 1 231.459248 564.449278c-1.6524-9.914398-5.507999-17.074797-13.219198-14.871597s-9.179998 2.5704-6.609599 24.235196 10.097998 66.463189 31.211995 89.963984a315.791946 315.791946 0 0 0 120.257979 84.272386c55.079991 21.297596 106.855182 21.113996 116.035181 11.933998s58.01759-82.436386 58.01759-82.436386z" fill="#2c2c2c" p-id="5672"></path><path d="M543.579195 661.022862a233.17196 233.17196 0 0 0 32.864394 46.267192 7.894799 7.894799 0 0 0 5.507999 2.0196c33.047994-1.4688 93.085184-18.359997 159.731973-65.177989a138.801576 138.801576 0 0 0 52.876791-80.416786c1.6524-9.914398 5.507999-17.074797 13.035598-14.871598s9.363598 2.5704 6.793198 24.235196-10.281598 66.463189-31.211994 89.963985a317.260746 317.260746 0 0 1-120.25798 84.272385c-55.079991 21.297596-107.038782 21.113996-116.03518 11.933998S488.499204 677.546859 488.499204 677.546859z" fill="#2c2c2c" p-id="5673"></path></svg>