<?xml version="1.0" standalone="no"?><!DOCTYPE svg PUBLIC "-//W3C//DTD SVG 1.1//EN" "http://www.w3.org/Graphics/SVG/1.1/DTD/svg11.dtd"><svg t="1746401320069" class="icon" viewBox="0 0 1024 1024" version="1.1" xmlns="http://www.w3.org/2000/svg" p-id="4226" xmlns:xlink="http://www.w3.org/1999/xlink" width="200" height="200"><path d="M513.520099 512m-508.819875 0a508.819876 508.819876 0 1 0 1017.639751 0 508.819876 508.819876 0 1 0-1017.639751 0Z" fill="#DF71F5" p-id="4227"></path><path d="M513.520099 512m-355.442484 0a355.442484 355.442484 0 1 0 710.884969 0 355.442484 355.442484 0 1 0-710.884969 0Z" fill="#51E4C2" p-id="4228"></path><path d="M859.046957 815.167602l-730.792547-71.69908a12.720497 12.720497 0 0 1-11.410286-13.903503l49.966112-509.315976a12.720497 12.720497 0 0 1 13.903503-11.416645l730.792547 71.69908a12.720497 12.720497 0 0 1 11.416646 13.903503l-49.972472 509.315976a12.720497 12.720497 0 0 1-13.903503 11.416645z" fill="#E4EFEC" p-id="4229"></path><path d="M880.671801 780.599652H146.374758a12.720497 12.720497 0 0 1-12.720497-12.720497V256.120845a12.720497 12.720497 0 0 1 12.720497-12.720497h734.290683a12.720497 12.720497 0 0 1 12.720497 12.720497v511.75831a12.720497 12.720497 0 0 1-12.720497 12.720497z" fill="#FFFFFF" p-id="4230"></path><path d="M513.52646 575.602484l121.906882-121.906882 226.04959 226.049591v69.053217H513.52646z" fill="#3ECCA6" p-id="4231"></path><path d="M741.407801 544.678957m-90.983354 0a90.983354 90.983354 0 1 0 181.966708 0 90.983354 90.983354 0 1 0-181.966708 0Z" fill="#F8E71C" p-id="4232"></path><path d="M741.407801 544.678957m-57.070509 0a57.070509 57.070509 0 1 0 114.141019 0 57.070509 57.070509 0 1 0-114.141019 0Z" fill="#F8E71C" p-id="4233"></path><path d="M165.455503 607.778981c18.228472-14.520447 227.245317-227.251677 227.245317-227.251677l369.186981 369.193342H165.455503V607.778981z" fill="#51E4C2" p-id="4234"></path><path d="M247.133814 570.832298a41.157168 24.289789 0 1 0 82.314335 0 41.157168 24.289789 0 1 0-82.314335 0Z" fill="#1F211E" p-id="4235"></path><path d="M283.749764 510.193689h9.076075v60.638609h-9.076075z" fill="#534741" p-id="4236"></path><path d="M288.290981 486.317317m-41.157167 0a41.157168 41.157168 0 1 0 82.314335 0 41.157168 41.157168 0 1 0-82.314335 0Z" fill="#3ECCA6" p-id="4237"></path></svg>